<?xml version="1.0" standalone="no"?><!DOCTYPE svg PUBLIC "-//W3C//DTD SVG 1.1//EN" "http://www.w3.org/Graphics/SVG/1.1/DTD/svg11.dtd"><svg t="1665541107762" class="icon" viewBox="0 0 1024 1024" version="1.1" xmlns="http://www.w3.org/2000/svg" p-id="5545" xmlns:xlink="http://www.w3.org/1999/xlink" width="32" height="32"><path d="M509.952 512m-43.008 0a43.008 43.008 0 1 0 86.016 0 43.008 43.008 0 1 0-86.016 0Z" p-id="5546"></path><path d="M777.216 468.992c-15.36 0-29.696 8.192-36.864 21.504h-46.08c-11.264-92.16-89.088-162.816-183.296-162.816S338.944 398.336 327.68 489.472h-44.032c-7.168-12.288-21.504-21.504-36.864-21.504-23.552 0-43.008 19.456-43.008 43.008s19.456 43.008 43.008 43.008c15.36 0 28.672-8.192 36.864-19.456h45.056C339.968 625.664 417.792 696.32 510.976 696.32c93.184 0 171.008-70.656 182.272-160.768h46.08c8.192 12.288 21.504 19.456 36.864 19.456 23.552 0 43.008-19.456 43.008-43.008s-18.432-43.008-41.984-43.008zM510.976 634.88c-67.584 0-122.88-55.296-122.88-122.88s55.296-122.88 122.88-122.88 122.88 55.296 122.88 122.88-55.296 122.88-122.88 122.88z" p-id="5547"></path></svg>