<?xml version="1.0" standalone="no"?><!DOCTYPE svg PUBLIC "-//W3C//DTD SVG 1.1//EN" "http://www.w3.org/Graphics/SVG/1.1/DTD/svg11.dtd"><svg t="1665540971227" class="icon" viewBox="0 0 1137 1024" version="1.1" xmlns="http://www.w3.org/2000/svg" p-id="3429" xmlns:xlink="http://www.w3.org/1999/xlink" width="35.53125" height="32"><path d="M1109.333333 0H28.444444a28.444444 28.444444 0 0 0 0 56.888889h113.777778v192.853333h-11.377778a85.333333 85.333333 0 0 0-85.333333 85.333334V938.666667A85.333333 85.333333 0 0 0 130.844444 1024h79.644445a85.333333 85.333333 0 0 0 85.333333-85.333333V335.075556a85.333333 85.333333 0 0 0-85.333333-85.333334h-11.377778V56.888889h341.333333v192.853333h-11.377777a85.333333 85.333333 0 0 0-85.333334 85.333334V938.666667A85.333333 85.333333 0 0 0 529.066667 1024h79.644444a85.333333 85.333333 0 0 0 85.333333-85.333333V335.075556a85.333333 85.333333 0 0 0-85.333333-85.333334h-11.377778V56.888889h341.333334v192.853333h-11.377778a85.333333 85.333333 0 0 0-85.333333 85.333334V938.666667a85.333333 85.333333 0 0 0 85.333333 85.333333h79.644444a85.333333 85.333333 0 0 0 85.333334-85.333333V335.075556a85.333333 85.333333 0 0 0-85.333334-85.333334h-11.377777V56.888889h113.777777a28.444444 28.444444 0 0 0 0-56.888889zM238.933333 335.075556V938.666667a28.444444 28.444444 0 0 1-28.444444 28.444444H130.844444a28.444444 28.444444 0 0 1-28.444444-28.444444V335.075556a28.444444 28.444444 0 0 1 28.444444-28.444445h79.644445a28.444444 28.444444 0 0 1 28.444444 28.444445z m398.222223 0V938.666667a28.444444 28.444444 0 0 1-28.444445 28.444444H529.066667a28.444444 28.444444 0 0 1-28.444445-28.444444V335.075556a28.444444 28.444444 0 0 1 28.444445-28.444445h79.644444a28.444444 28.444444 0 0 1 28.444445 28.444445z m398.222222 0V938.666667a28.444444 28.444444 0 0 1-28.444445 28.444444h-79.644444a28.444444 28.444444 0 0 1-28.444445-28.444444V335.075556a28.444444 28.444444 0 0 1 28.444445-28.444445h79.644444a28.444444 28.444444 0 0 1 28.444445 28.444445z" p-id="3430"></path></svg>